<mxfile host="app.diagrams.net" modified="2021-02-05T21:41:15.438Z" agent="5.0 (Windows NT 10.0; WOW64) AppleWebKit/537.36 (KHTML, like Gecko) Chrome/88.0.4324.146 Safari/537.36" etag="zT3uU9aXzptCfN11aNVH" version="14.2.9" type="github" pages="4">
  <diagram name="Page-1" id="c7558073-3199-34d8-9f00-42111426c3f3">
    <mxGraphModel dx="1422" dy="794" grid="1" gridSize="10" guides="1" tooltips="1" connect="1" arrows="1" fold="1" page="1" pageScale="1" pageWidth="826" pageHeight="1169" background="#ffffff" math="0" shadow="0">
      <root>
        <mxCell id="0" />
        <mxCell id="1" parent="0" />
        <mxCell id="2" value="&lt;p style=&quot;margin: 0px; margin-top: 4px; text-align: center; text-decoration: underline;&quot;&gt;&lt;strong&gt;Process 1&lt;br /&gt;&lt;/strong&gt;&lt;/p&gt;&lt;hr /&gt;&lt;p style=&quot;margin: 0px; margin-left: 8px;&quot;&gt;System Study&lt;/p&gt;&lt;p style=&quot;margin: 0px; margin-left: 8px;&quot;&gt;Preparation&lt;/p&gt;" style="verticalAlign=middle;align=center;overflow=fill;fontSize=12;fontFamily=Helvetica;html=1;rounded=1;fontStyle=1;strokeWidth=3;fillColor=#E6FFCC" parent="1" vertex="1">
          <mxGeometry x="236" y="236" width="110" height="90" as="geometry" />
        </mxCell>
        <mxCell id="3" value="Engineering" style="whiteSpace=wrap;align=center;verticalAlign=middle;fontStyle=1;strokeWidth=3;fillColor=#FFFFCC" parent="1" vertex="1">
          <mxGeometry x="246" y="126" width="90" height="60" as="geometry" />
        </mxCell>
        <mxCell id="4" value="Investors" style="whiteSpace=wrap;align=center;verticalAlign=middle;fontStyle=1;strokeWidth=3;fillColor=#FFFFCC" parent="1" vertex="1">
          <mxGeometry x="40" y="251" width="90" height="60" as="geometry" />
        </mxCell>
        <mxCell id="5" value="ON-DEMAND SYSTEM DEVELOPMENT" style="shape=process;whiteSpace=wrap;align=center;verticalAlign=middle;size=0.0475;fontStyle=1;strokeWidth=3;fillColor=#FFCCCC" parent="1" vertex="1">
          <mxGeometry x="200.99999999999991" y="391" width="400" height="50" as="geometry" />
        </mxCell>
        <mxCell id="6" value="&lt;p style=&quot;margin: 0px; margin-top: 4px; text-align: center; text-decoration: underline;&quot;&gt;&lt;strong&gt;Process 2&lt;br /&gt;&lt;/strong&gt;&lt;/p&gt;&lt;hr /&gt;&lt;p style=&quot;margin: 0px; margin-left: 8px;&quot;&gt;System Analysis&lt;/p&gt;" style="verticalAlign=middle;align=center;overflow=fill;fontSize=12;fontFamily=Helvetica;html=1;rounded=1;fontStyle=1;strokeWidth=3;fillColor=#E6FFCC" parent="1" vertex="1">
          <mxGeometry x="390" y="146" width="110" height="90" as="geometry" />
        </mxCell>
        <mxCell id="7" value="&lt;p style=&quot;margin: 0px; margin-top: 4px; text-align: center; text-decoration: underline;&quot;&gt;&lt;strong&gt;&lt;strong&gt;Process&lt;/strong&gt; 3&lt;br /&gt;&lt;/strong&gt;&lt;/p&gt;&lt;hr /&gt;&lt;p style=&quot;margin: 0px; margin-left: 8px;&quot;&gt;List Possible&lt;/p&gt;&lt;p style=&quot;margin: 0px; margin-left: 8px;&quot;&gt;System Solutions&lt;/p&gt;" style="verticalAlign=middle;align=center;overflow=fill;fontSize=12;fontFamily=Helvetica;html=1;rounded=1;fontStyle=1;strokeWidth=3;fillColor=#E6FFCC" parent="1" vertex="1">
          <mxGeometry x="681" y="371" width="110" height="90" as="geometry" />
        </mxCell>
        <mxCell id="8" value="&lt;p style=&quot;margin: 0px; margin-top: 4px; text-align: center; text-decoration: underline;&quot;&gt;&lt;strong&gt;&lt;strong&gt;Process&lt;/strong&gt; 4&lt;br /&gt;&lt;/strong&gt;&lt;/p&gt;&lt;hr /&gt;&lt;p style=&quot;margin: 0px; margin-left: 8px;&quot;&gt;Detail Chosen&lt;/p&gt;&lt;p style=&quot;margin: 0px; margin-left: 8px;&quot;&gt;Solution&lt;/p&gt;" style="verticalAlign=middle;align=center;overflow=fill;fontSize=12;fontFamily=Helvetica;html=1;rounded=1;fontStyle=1;strokeWidth=3;fillColor=#E6FFCC" parent="1" vertex="1">
          <mxGeometry x="560" y="241" width="110" height="90" as="geometry" />
        </mxCell>
        <mxCell id="9" value="&lt;p style=&quot;margin: 0px; margin-top: 4px; text-align: center; text-decoration: underline;&quot;&gt;&lt;strong&gt;&lt;strong&gt;Process&lt;/strong&gt; 5&lt;br /&gt;&lt;/strong&gt;&lt;/p&gt;&lt;hr /&gt;&lt;p style=&quot;margin: 0px; margin-left: 8px;&quot;&gt;New System&lt;/p&gt;&lt;p style=&quot;margin: 0px; margin-left: 8px;&quot;&gt;Design&lt;/p&gt;" style="verticalAlign=middle;align=center;overflow=fill;fontSize=12;fontFamily=Helvetica;html=1;rounded=1;fontStyle=1;strokeWidth=3;fillColor=#E6FFCC" parent="1" vertex="1">
          <mxGeometry x="540" y="510" width="110" height="90" as="geometry" />
        </mxCell>
        <mxCell id="10" value="&lt;p style=&quot;margin: 0px; margin-top: 4px; text-align: center; text-decoration: underline;&quot;&gt;&lt;strong&gt;&lt;strong&gt;Process&lt;/strong&gt; 6&lt;br /&gt;&lt;/strong&gt;&lt;/p&gt;&lt;hr /&gt;&lt;p style=&quot;margin: 0px; margin-left: 8px;&quot;&gt;New&lt;/p&gt;&lt;p style=&quot;margin: 0px; margin-left: 8px;&quot;&gt;System&lt;/p&gt;&lt;p style=&quot;margin: 0px; margin-left: 8px;&quot;&gt;Construction&lt;/p&gt;" style="verticalAlign=middle;align=center;overflow=fill;fontSize=12;fontFamily=Helvetica;html=1;rounded=1;fontStyle=1;strokeWidth=3;fillColor=#E6FFCC" parent="1" vertex="1">
          <mxGeometry x="188.49999999999991" y="510" width="110" height="90" as="geometry" />
        </mxCell>
        <mxCell id="12" value="Management" style="whiteSpace=wrap;align=center;verticalAlign=middle;fontStyle=1;strokeWidth=3;fillColor=#FFFFCC" parent="1" vertex="1">
          <mxGeometry x="691" y="60.00000000000002" width="90" height="60" as="geometry" />
        </mxCell>
        <mxCell id="13" value="Management" style="whiteSpace=wrap;align=center;verticalAlign=middle;fontStyle=1;strokeWidth=3;fillColor=#FFFFCC" parent="1" vertex="1">
          <mxGeometry x="353.50000000000006" y="650" width="90" height="60" as="geometry" />
        </mxCell>
        <mxCell id="14" value="Engineering" style="whiteSpace=wrap;align=center;verticalAlign=middle;fontStyle=1;strokeWidth=3;fillColor=#FFFFCC" parent="1" vertex="1">
          <mxGeometry x="34.99999999999997" y="524.9999999999999" width="90" height="60" as="geometry" />
        </mxCell>
        <mxCell id="15" value="Vendors" style="whiteSpace=wrap;align=center;verticalAlign=middle;fontStyle=1;strokeWidth=3;fillColor=#FFFFCC" parent="1" vertex="1">
          <mxGeometry x="549.9999999999999" y="650" width="90" height="60" as="geometry" />
        </mxCell>
        <mxCell id="36" value="" style="edgeStyle=none;noEdgeStyle=1;strokeColor=#990000;strokeWidth=2" parent="1" source="3" target="2" edge="1">
          <mxGeometry width="100" height="100" relative="1" as="geometry">
            <mxPoint x="20" y="250" as="sourcePoint" />
            <mxPoint x="120" y="150" as="targetPoint" />
          </mxGeometry>
        </mxCell>
        <mxCell id="37" value="" style="edgeStyle=none;noEdgeStyle=1;strokeColor=#990000;strokeWidth=2" parent="1" source="4" target="2" edge="1">
          <mxGeometry width="100" height="100" relative="1" as="geometry">
            <mxPoint x="280" y="190" as="sourcePoint" />
            <mxPoint x="380" y="90" as="targetPoint" />
          </mxGeometry>
        </mxCell>
        <mxCell id="11" value="&lt;p style=&quot;margin: 0px; margin-top: 4px; text-align: center; text-decoration: underline;&quot;&gt;&lt;strong&gt;&lt;strong&gt;Process&lt;/strong&gt; 7&lt;br /&gt;&lt;/strong&gt;&lt;/p&gt;&lt;hr /&gt;&lt;p style=&quot;margin: 0px; margin-left: 8px;&quot;&gt;New System&lt;/p&gt;&lt;p style=&quot;margin: 0px; margin-left: 8px;&quot;&gt;Startup and&lt;/p&gt;&lt;p style=&quot;margin: 0px; margin-left: 8px;&quot;&gt;Testing&lt;/p&gt;" style="verticalAlign=middle;align=center;overflow=fill;fontSize=12;fontFamily=Helvetica;html=1;rounded=1;fontStyle=1;strokeWidth=3;fillColor=#E6FFCC" parent="1" vertex="1">
          <mxGeometry x="343.49999999999994" y="510" width="110" height="90" as="geometry" />
        </mxCell>
        <mxCell id="51" value="" style="endArrow=none;noEdgeStyle=1;strokeColor=#990000;strokeWidth=2" parent="1" source="9" target="11" edge="1">
          <mxGeometry relative="1" as="geometry">
            <mxPoint x="205.00819672131135" y="481" as="sourcePoint" />
            <mxPoint x="400.32786885245895" y="650" as="targetPoint" />
          </mxGeometry>
        </mxCell>
        <mxCell id="52" value="Desired &#xa;functionality" style="text;spacingTop=-5;align=center" parent="1" vertex="1">
          <mxGeometry x="165" y="251" width="30" height="20" as="geometry" />
        </mxCell>
        <mxCell id="53" value="Desired &#xa;functionality" style="text;spacingTop=-5;align=center" parent="1" vertex="1">
          <mxGeometry x="241" y="196" width="30" height="20" as="geometry" />
        </mxCell>
        <mxCell id="54" value="Documentation&#xa;from similar projects" style="text;spacingTop=-5;align=center" parent="1" vertex="1">
          <mxGeometry x="186" y="341" width="30" height="20" as="geometry" />
        </mxCell>
        <mxCell id="55" value="" style="edgeStyle=elbowEdgeStyle;elbow=horizontal;strokeColor=#990000;strokeWidth=2" parent="1" source="5" target="2" edge="1">
          <mxGeometry width="100" height="100" relative="1" as="geometry">
            <mxPoint x="50" y="530" as="sourcePoint" />
            <mxPoint x="150" y="430" as="targetPoint" />
            <Array as="points">
              <mxPoint x="260" y="370" />
            </Array>
          </mxGeometry>
        </mxCell>
        <mxCell id="56" value="" style="edgeStyle=elbowEdgeStyle;elbow=horizontal;strokeColor=#990000;strokeWidth=2" parent="1" source="2" target="5" edge="1">
          <mxGeometry width="100" height="100" relative="1" as="geometry">
            <mxPoint x="50" y="500" as="sourcePoint" />
            <mxPoint x="150" y="400" as="targetPoint" />
            <Array as="points">
              <mxPoint x="280" y="360" />
            </Array>
          </mxGeometry>
        </mxCell>
        <mxCell id="57" value="Elaborate&#xa;cost/benefit&#xa;ratio" style="text;spacingTop=-5;align=center" parent="1" vertex="1">
          <mxGeometry x="306" y="341" width="30" height="20" as="geometry" />
        </mxCell>
        <mxCell id="58" value="" style="edgeStyle=elbowEdgeStyle;elbow=horizontal;strokeColor=#990000;strokeWidth=2" parent="1" source="5" target="6" edge="1">
          <mxGeometry width="100" height="100" relative="1" as="geometry">
            <mxPoint x="380" y="370" as="sourcePoint" />
            <mxPoint x="480" y="270" as="targetPoint" />
            <Array as="points">
              <mxPoint x="440" y="310" />
            </Array>
          </mxGeometry>
        </mxCell>
        <mxCell id="59" value="" style="edgeStyle=elbowEdgeStyle;elbow=horizontal;strokeColor=#990000;strokeWidth=2" parent="1" source="6" target="5" edge="1">
          <mxGeometry width="100" height="100" relative="1" as="geometry">
            <mxPoint x="350" y="370" as="sourcePoint" />
            <mxPoint x="450" y="270" as="targetPoint" />
            <Array as="points">
              <mxPoint x="460" y="320" />
            </Array>
          </mxGeometry>
        </mxCell>
        <mxCell id="60" value="Existing&#xa;documentation" style="text;spacingTop=-5;align=center" parent="1" vertex="1">
          <mxGeometry x="380.0000000000001" y="280.99999999999983" width="30" height="20" as="geometry" />
        </mxCell>
        <mxCell id="61" value="Necessary&#xa;resources" style="text;spacingTop=-5;align=center" parent="1" vertex="1">
          <mxGeometry x="481.0000000000002" y="251.00000000000006" width="30" height="20" as="geometry" />
        </mxCell>
        <mxCell id="62" value="Progress&#xa;reports" style="text;spacingTop=-5;align=center" parent="1" vertex="1">
          <mxGeometry x="545.0000000000001" y="100.00000000000003" width="30" height="20" as="geometry" />
        </mxCell>
        <mxCell id="63" value="Progress&#xa;reports" style="text;spacingTop=-5;align=center" parent="1" vertex="1">
          <mxGeometry x="640" y="146.0000000000001" width="30" height="20" as="geometry" />
        </mxCell>
        <mxCell id="64" value="Progress&#xa;reports" style="text;spacingTop=-5;align=center" parent="1" vertex="1">
          <mxGeometry x="751.0000000000001" y="261.0000000000001" width="30" height="20" as="geometry" />
        </mxCell>
        <mxCell id="65" value="" style="edgeStyle=elbowEdgeStyle;elbow=horizontal;strokeColor=#990000;strokeWidth=2" parent="1" source="6" target="12" edge="1">
          <mxGeometry width="100" height="100" relative="1" as="geometry">
            <mxPoint x="260" y="180.0000000000001" as="sourcePoint" />
            <mxPoint x="360" y="80.00000000000011" as="targetPoint" />
            <Array as="points">
              <mxPoint x="445" y="140" />
            </Array>
          </mxGeometry>
        </mxCell>
        <mxCell id="66" value="" style="edgeStyle=elbowEdgeStyle;elbow=vertical;entryX=0.25;entryY=1;strokeColor=#990000;strokeWidth=2" parent="1" source="8" target="12" edge="1">
          <mxGeometry width="100" height="100" relative="1" as="geometry">
            <mxPoint x="530" y="250" as="sourcePoint" />
            <mxPoint x="630" y="150" as="targetPoint" />
          </mxGeometry>
        </mxCell>
        <mxCell id="67" value="" style="edgeStyle=elbowEdgeStyle;elbow=horizontal;strokeColor=#990000;strokeWidth=2" parent="1" source="7" target="12" edge="1">
          <mxGeometry width="100" height="100" relative="1" as="geometry">
            <mxPoint x="660.0000000000002" y="360" as="sourcePoint" />
            <mxPoint x="760.0000000000002" y="260" as="targetPoint" />
          </mxGeometry>
        </mxCell>
        <mxCell id="68" value="" style="edgeStyle=elbowEdgeStyle;elbow=horizontal;strokeColor=#990000;strokeWidth=2" parent="1" source="8" target="5" edge="1">
          <mxGeometry width="100" height="100" relative="1" as="geometry">
            <mxPoint x="570" y="380" as="sourcePoint" />
            <mxPoint x="510" y="250" as="targetPoint" />
            <Array as="points">
              <mxPoint x="570" y="360" />
            </Array>
          </mxGeometry>
        </mxCell>
        <mxCell id="69" value="" style="edgeStyle=segmentEdgeStyle;strokeColor=#990000;strokeWidth=2" parent="1" source="5" target="8" edge="1">
          <mxGeometry width="100" height="100" relative="1" as="geometry">
            <mxPoint x="340" y="360" as="sourcePoint" />
            <mxPoint x="440" y="260" as="targetPoint" />
            <Array as="points">
              <mxPoint x="520" y="286" />
            </Array>
          </mxGeometry>
        </mxCell>
        <mxCell id="70" value="Existing&#xa;Models" style="text;spacingTop=-5;align=center" parent="1" vertex="1">
          <mxGeometry x="530.0000000000002" y="340.9999999999999" width="30" height="20" as="geometry" />
        </mxCell>
        <mxCell id="71" value="Equipment&#xa;specification" style="text;spacingTop=-5;align=center" parent="1" vertex="1">
          <mxGeometry x="615" y="341" width="30" height="20" as="geometry" />
        </mxCell>
        <mxCell id="72" value="" style="edgeStyle=elbowEdgeStyle;elbow=vertical;strokeColor=#990000;strokeWidth=2" parent="1" source="5" target="7" edge="1">
          <mxGeometry width="100" height="100" relative="1" as="geometry">
            <mxPoint x="500" y="500" as="sourcePoint" />
            <mxPoint x="600" y="400" as="targetPoint" />
            <Array as="points">
              <mxPoint x="650" y="410" />
            </Array>
          </mxGeometry>
        </mxCell>
        <mxCell id="73" value="" style="edgeStyle=elbowEdgeStyle;elbow=vertical;strokeColor=#990000;strokeWidth=2" parent="1" source="7" target="5" edge="1">
          <mxGeometry width="100" height="100" relative="1" as="geometry">
            <mxPoint x="460" y="500" as="sourcePoint" />
            <mxPoint x="560" y="400" as="targetPoint" />
            <Array as="points">
              <mxPoint x="650" y="430" />
            </Array>
          </mxGeometry>
        </mxCell>
        <mxCell id="74" value="Resources" style="text;spacingTop=-5;align=center" parent="1" vertex="1">
          <mxGeometry x="621" y="390.99999999999994" width="30" height="20" as="geometry" />
        </mxCell>
        <mxCell id="75" value="System &#xa;Advantages &#xa;and Limitations" style="text;spacingTop=-5;align=center" parent="1" vertex="1">
          <mxGeometry x="630" y="431.0000000000001" width="30" height="20" as="geometry" />
        </mxCell>
        <mxCell id="76" value="" style="edgeStyle=elbowEdgeStyle;elbow=horizontal;strokeColor=#990000;strokeWidth=2" parent="1" source="9" target="5" edge="1">
          <mxGeometry width="100" height="100" relative="1" as="geometry">
            <mxPoint x="420" y="580" as="sourcePoint" />
            <mxPoint x="520" y="480" as="targetPoint" />
            <Array as="points">
              <mxPoint x="570" y="470" />
            </Array>
          </mxGeometry>
        </mxCell>
        <mxCell id="77" value="" style="edgeStyle=elbowEdgeStyle;elbow=horizontal;strokeColor=#990000;strokeWidth=2" parent="1" source="5" target="9" edge="1">
          <mxGeometry width="100" height="100" relative="1" as="geometry">
            <mxPoint x="400" y="590" as="sourcePoint" />
            <mxPoint x="500" y="490" as="targetPoint" />
            <Array as="points">
              <mxPoint x="560" y="480" />
            </Array>
          </mxGeometry>
        </mxCell>
        <mxCell id="78" value="" style="edgeStyle=elbowEdgeStyle;elbow=horizontal;strokeColor=#990000;strokeWidth=2" parent="1" source="15" target="9" edge="1">
          <mxGeometry width="100" height="100" relative="1" as="geometry">
            <mxPoint x="430" y="700" as="sourcePoint" />
            <mxPoint x="530" y="600" as="targetPoint" />
          </mxGeometry>
        </mxCell>
        <mxCell id="79" value="Hardware and&#xa;Software specs" style="text;spacingTop=-5;align=center" parent="1" vertex="1">
          <mxGeometry x="625" y="610" width="30" height="20" as="geometry" />
        </mxCell>
        <mxCell id="81" value="" style="edgeStyle=elbowEdgeStyle;elbow=horizontal;exitX=0;exitY=0.75;strokeColor=#990000;strokeWidth=2" parent="1" source="9" target="13" edge="1">
          <mxGeometry width="100" height="100" relative="1" as="geometry">
            <mxPoint x="420" y="730" as="sourcePoint" />
            <mxPoint x="520" y="630" as="targetPoint" />
            <Array as="points">
              <mxPoint x="470" y="630" />
            </Array>
          </mxGeometry>
        </mxCell>
        <mxCell id="82" value="Progress&#xa;Reports" style="text;spacingTop=-5;align=center" parent="1" vertex="1">
          <mxGeometry x="481.0000000000004" y="610.0000000000001" width="30" height="20" as="geometry" />
        </mxCell>
        <mxCell id="83" value="" style="edgeStyle=elbowEdgeStyle;elbow=horizontal;strokeColor=#990000;strokeWidth=2" parent="1" source="11" target="13" edge="1">
          <mxGeometry width="100" height="100" relative="1" as="geometry">
            <mxPoint x="200" y="660.0000000000002" as="sourcePoint" />
            <mxPoint x="230.0000000000001" y="650" as="targetPoint" />
          </mxGeometry>
        </mxCell>
        <mxCell id="84" value="Progress&#xa;Reports" style="text;spacingTop=-5;align=center" parent="1" vertex="1">
          <mxGeometry x="410.00000000000017" y="610.0000000000002" width="30" height="20" as="geometry" />
        </mxCell>
        <mxCell id="85" value="" style="edgeStyle=elbowEdgeStyle;elbow=horizontal;strokeColor=#990000;strokeWidth=2" parent="1" source="10" target="13" edge="1">
          <mxGeometry width="100" height="100" relative="1" as="geometry">
            <mxPoint x="130.0000000000001" y="740" as="sourcePoint" />
            <mxPoint x="230.0000000000001" y="640" as="targetPoint" />
            <Array as="points">
              <mxPoint x="244" y="630" />
            </Array>
          </mxGeometry>
        </mxCell>
        <mxCell id="86" value="Progress&#xa;Reports" style="text;spacingTop=-5;align=center" parent="1" vertex="1">
          <mxGeometry x="255.99999999999994" y="650.0000000000001" width="30" height="20" as="geometry" />
        </mxCell>
        <mxCell id="87" value="" style="edgeStyle=elbowEdgeStyle;elbow=vertical;strokeColor=#990000;strokeWidth=2" parent="1" source="10" target="14" edge="1">
          <mxGeometry width="100" height="100" relative="1" as="geometry">
            <mxPoint x="70" y="740" as="sourcePoint" />
            <mxPoint x="170" y="640" as="targetPoint" />
          </mxGeometry>
        </mxCell>
        <mxCell id="88" value="" style="edgeStyle=elbowEdgeStyle;elbow=horizontal;strokeColor=#990000;strokeWidth=2" parent="1" source="5" target="11" edge="1">
          <mxGeometry width="100" height="100" relative="1" as="geometry">
            <mxPoint x="50" y="500" as="sourcePoint" />
            <mxPoint x="150" y="400" as="targetPoint" />
            <Array as="points">
              <mxPoint x="390" y="470" />
            </Array>
          </mxGeometry>
        </mxCell>
        <mxCell id="89" value="" style="edgeStyle=elbowEdgeStyle;elbow=horizontal;strokeColor=#990000;strokeWidth=2" parent="1" source="11" target="5" edge="1">
          <mxGeometry width="100" height="100" relative="1" as="geometry">
            <mxPoint x="59.999999999999886" y="510" as="sourcePoint" />
            <mxPoint x="159.9999999999999" y="410" as="targetPoint" />
            <Array as="points">
              <mxPoint x="410" y="470" />
            </Array>
          </mxGeometry>
        </mxCell>
        <mxCell id="90" value="Version&#xa;specs" style="text;spacingTop=-5;align=center" parent="1" vertex="1">
          <mxGeometry x="261" y="461" width="30" height="20" as="geometry" />
        </mxCell>
        <mxCell id="91" value="Certificates,&#xa;system&#xa;libraries" style="text;spacingTop=-5;align=center" parent="1" vertex="1">
          <mxGeometry x="180" y="461.0000000000002" width="30" height="20" as="geometry" />
        </mxCell>
        <mxCell id="92" value="" style="edgeStyle=elbowEdgeStyle;elbow=horizontal;strokeColor=#990000;strokeWidth=2" parent="1" source="5" target="10" edge="1">
          <mxGeometry width="100" height="100" relative="1" as="geometry">
            <mxPoint x="30.000000000000114" y="500" as="sourcePoint" />
            <mxPoint x="130.0000000000001" y="400" as="targetPoint" />
            <Array as="points">
              <mxPoint x="250" y="470" />
            </Array>
          </mxGeometry>
        </mxCell>
        <mxCell id="93" value="" style="edgeStyle=elbowEdgeStyle;elbow=horizontal;strokeColor=#990000;strokeWidth=2" parent="1" source="10" target="5" edge="1">
          <mxGeometry width="100" height="100" relative="1" as="geometry">
            <mxPoint x="40" y="510" as="sourcePoint" />
            <mxPoint x="140" y="410" as="targetPoint" />
            <Array as="points">
              <mxPoint x="230" y="470" />
            </Array>
          </mxGeometry>
        </mxCell>
        <mxCell id="94" value="System&#xa;specs" style="text;spacingTop=-5;align=center" parent="1" vertex="1">
          <mxGeometry x="139.99999999999994" y="565.0000000000001" width="30" height="20" as="geometry" />
        </mxCell>
        <mxCell id="95" value="Design&#xa;specs" style="text;spacingTop=-5;align=center" parent="1" vertex="1">
          <mxGeometry x="423.49999999999994" y="461.0000000000002" width="30" height="20" as="geometry" />
        </mxCell>
        <mxCell id="96" value="System&#xa;version" style="text;spacingTop=-5;align=center" parent="1" vertex="1">
          <mxGeometry x="350.9999999999998" y="461" width="30" height="20" as="geometry" />
        </mxCell>
      </root>
    </mxGraphModel>
  </diagram>
  <diagram id="R7G8wOYUefruL5u44qhR" name="Page-2">
    <mxGraphModel dx="1422" dy="794" grid="0" gridSize="10" guides="1" tooltips="1" connect="1" arrows="1" fold="1" page="1" pageScale="1" pageWidth="850" pageHeight="1100" math="0" shadow="0">
      <root>
        <mxCell id="V-b-HQtUx1xGGUiKB_HP-0" />
        <mxCell id="V-b-HQtUx1xGGUiKB_HP-1" parent="V-b-HQtUx1xGGUiKB_HP-0" />
        <mxCell id="IvNzww2wgmAIkyjw9Zv5-2" value="" style="edgeStyle=orthogonalEdgeStyle;rounded=0;orthogonalLoop=1;jettySize=auto;html=1;" parent="V-b-HQtUx1xGGUiKB_HP-1" source="IvNzww2wgmAIkyjw9Zv5-0" target="IvNzww2wgmAIkyjw9Zv5-1" edge="1">
          <mxGeometry relative="1" as="geometry" />
        </mxCell>
        <mxCell id="IvNzww2wgmAIkyjw9Zv5-4" value="" style="edgeStyle=orthogonalEdgeStyle;rounded=0;orthogonalLoop=1;jettySize=auto;html=1;" parent="V-b-HQtUx1xGGUiKB_HP-1" source="IvNzww2wgmAIkyjw9Zv5-0" target="IvNzww2wgmAIkyjw9Zv5-3" edge="1">
          <mxGeometry relative="1" as="geometry" />
        </mxCell>
        <mxCell id="IvNzww2wgmAIkyjw9Zv5-6" value="" style="edgeStyle=orthogonalEdgeStyle;rounded=0;orthogonalLoop=1;jettySize=auto;html=1;" parent="V-b-HQtUx1xGGUiKB_HP-1" source="IvNzww2wgmAIkyjw9Zv5-0" target="IvNzww2wgmAIkyjw9Zv5-5" edge="1">
          <mxGeometry relative="1" as="geometry" />
        </mxCell>
        <mxCell id="IvNzww2wgmAIkyjw9Zv5-0" value="New Loan" style="whiteSpace=wrap;html=1;aspect=fixed;fillColor=#ffe6cc;strokeColor=#d79b00;" parent="V-b-HQtUx1xGGUiKB_HP-1" vertex="1">
          <mxGeometry x="380" y="40" width="80" height="80" as="geometry" />
        </mxCell>
        <mxCell id="IvNzww2wgmAIkyjw9Zv5-18" value="" style="edgeStyle=orthogonalEdgeStyle;rounded=0;orthogonalLoop=1;jettySize=auto;html=1;" parent="V-b-HQtUx1xGGUiKB_HP-1" source="IvNzww2wgmAIkyjw9Zv5-1" target="IvNzww2wgmAIkyjw9Zv5-17" edge="1">
          <mxGeometry relative="1" as="geometry" />
        </mxCell>
        <mxCell id="IvNzww2wgmAIkyjw9Zv5-1" value="Underwriting" style="whiteSpace=wrap;html=1;aspect=fixed;fillColor=#f8cecc;strokeColor=#b85450;" parent="V-b-HQtUx1xGGUiKB_HP-1" vertex="1">
          <mxGeometry x="220" y="160" width="80" height="80" as="geometry" />
        </mxCell>
        <mxCell id="IvNzww2wgmAIkyjw9Zv5-3" value="Submit to Suspend" style="whiteSpace=wrap;html=1;aspect=fixed;fillColor=#f8cecc;strokeColor=#b85450;" parent="V-b-HQtUx1xGGUiKB_HP-1" vertex="1">
          <mxGeometry x="540" y="160" width="80" height="80" as="geometry" />
        </mxCell>
        <mxCell id="IvNzww2wgmAIkyjw9Zv5-5" value="Appraisal Review" style="whiteSpace=wrap;html=1;aspect=fixed;fillColor=#f8cecc;strokeColor=#b85450;" parent="V-b-HQtUx1xGGUiKB_HP-1" vertex="1">
          <mxGeometry x="380" y="160" width="80" height="80" as="geometry" />
        </mxCell>
        <mxCell id="IvNzww2wgmAIkyjw9Zv5-20" value="" style="edgeStyle=orthogonalEdgeStyle;rounded=0;orthogonalLoop=1;jettySize=auto;html=1;startArrow=block;startFill=1;" parent="V-b-HQtUx1xGGUiKB_HP-1" source="IvNzww2wgmAIkyjw9Zv5-17" target="IvNzww2wgmAIkyjw9Zv5-19" edge="1">
          <mxGeometry relative="1" as="geometry" />
        </mxCell>
        <mxCell id="IvNzww2wgmAIkyjw9Zv5-22" value="" style="edgeStyle=orthogonalEdgeStyle;rounded=0;orthogonalLoop=1;jettySize=auto;html=1;" parent="V-b-HQtUx1xGGUiKB_HP-1" source="IvNzww2wgmAIkyjw9Zv5-17" target="IvNzww2wgmAIkyjw9Zv5-21" edge="1">
          <mxGeometry relative="1" as="geometry" />
        </mxCell>
        <mxCell id="IvNzww2wgmAIkyjw9Zv5-24" value="" style="edgeStyle=orthogonalEdgeStyle;rounded=0;orthogonalLoop=1;jettySize=auto;html=1;startArrow=block;startFill=1;" parent="V-b-HQtUx1xGGUiKB_HP-1" source="IvNzww2wgmAIkyjw9Zv5-17" target="IvNzww2wgmAIkyjw9Zv5-23" edge="1">
          <mxGeometry relative="1" as="geometry" />
        </mxCell>
        <mxCell id="IvNzww2wgmAIkyjw9Zv5-17" value="Conditions Management" style="whiteSpace=wrap;html=1;aspect=fixed;fillColor=#e1d5e7;strokeColor=#9673a6;" parent="V-b-HQtUx1xGGUiKB_HP-1" vertex="1">
          <mxGeometry x="220" y="280" width="80" height="80" as="geometry" />
        </mxCell>
        <mxCell id="IvNzww2wgmAIkyjw9Zv5-19" value="Ready to Close" style="whiteSpace=wrap;html=1;aspect=fixed;fillColor=#d5e8d4;strokeColor=#82b366;" parent="V-b-HQtUx1xGGUiKB_HP-1" vertex="1">
          <mxGeometry x="120" y="450" width="80" height="80" as="geometry" />
        </mxCell>
        <mxCell id="IvNzww2wgmAIkyjw9Zv5-27" style="edgeStyle=orthogonalEdgeStyle;rounded=0;orthogonalLoop=1;jettySize=auto;html=1;entryX=0;entryY=0.5;entryDx=0;entryDy=0;startArrow=block;startFill=1;" parent="V-b-HQtUx1xGGUiKB_HP-1" source="IvNzww2wgmAIkyjw9Zv5-21" target="IvNzww2wgmAIkyjw9Zv5-25" edge="1">
          <mxGeometry relative="1" as="geometry" />
        </mxCell>
        <mxCell id="IvNzww2wgmAIkyjw9Zv5-21" value="On Hold" style="whiteSpace=wrap;html=1;aspect=fixed;fillColor=#d5e8d4;strokeColor=#82b366;" parent="V-b-HQtUx1xGGUiKB_HP-1" vertex="1">
          <mxGeometry x="220" y="400" width="80" height="80" as="geometry" />
        </mxCell>
        <mxCell id="IvNzww2wgmAIkyjw9Zv5-26" value="" style="edgeStyle=orthogonalEdgeStyle;rounded=0;orthogonalLoop=1;jettySize=auto;html=1;startArrow=block;startFill=1;" parent="V-b-HQtUx1xGGUiKB_HP-1" source="IvNzww2wgmAIkyjw9Zv5-23" target="IvNzww2wgmAIkyjw9Zv5-25" edge="1">
          <mxGeometry relative="1" as="geometry" />
        </mxCell>
        <mxCell id="IvNzww2wgmAIkyjw9Zv5-23" value="Resubmit to Underwriting" style="whiteSpace=wrap;html=1;aspect=fixed;fillColor=#d5e8d4;strokeColor=#82b366;" parent="V-b-HQtUx1xGGUiKB_HP-1" vertex="1">
          <mxGeometry x="380" y="280" width="80" height="80" as="geometry" />
        </mxCell>
        <mxCell id="IvNzww2wgmAIkyjw9Zv5-34" value="" style="edgeStyle=orthogonalEdgeStyle;rounded=0;orthogonalLoop=1;jettySize=auto;html=1;startArrow=block;startFill=1;" parent="V-b-HQtUx1xGGUiKB_HP-1" source="IvNzww2wgmAIkyjw9Zv5-25" target="IvNzww2wgmAIkyjw9Zv5-33" edge="1">
          <mxGeometry relative="1" as="geometry" />
        </mxCell>
        <mxCell id="IvNzww2wgmAIkyjw9Zv5-25" value="Conditions Management" style="whiteSpace=wrap;html=1;aspect=fixed;fillColor=#fff2cc;strokeColor=#d6b656;" parent="V-b-HQtUx1xGGUiKB_HP-1" vertex="1">
          <mxGeometry x="380" y="400" width="80" height="80" as="geometry" />
        </mxCell>
        <mxCell id="IvNzww2wgmAIkyjw9Zv5-32" value="" style="endArrow=classic;html=1;entryX=1.013;entryY=0.888;entryDx=0;entryDy=0;entryPerimeter=0;exitX=0.25;exitY=1;exitDx=0;exitDy=0;startArrow=block;startFill=1;" parent="V-b-HQtUx1xGGUiKB_HP-1" source="IvNzww2wgmAIkyjw9Zv5-25" target="IvNzww2wgmAIkyjw9Zv5-19" edge="1">
          <mxGeometry width="50" height="50" relative="1" as="geometry">
            <mxPoint x="380" y="480" as="sourcePoint" />
            <mxPoint x="550" y="390" as="targetPoint" />
            <Array as="points">
              <mxPoint x="400" y="521" />
            </Array>
          </mxGeometry>
        </mxCell>
        <mxCell id="IvNzww2wgmAIkyjw9Zv5-33" value="On Hold" style="whiteSpace=wrap;html=1;aspect=fixed;fillColor=#fff2cc;strokeColor=#d6b656;" parent="V-b-HQtUx1xGGUiKB_HP-1" vertex="1">
          <mxGeometry x="540" y="400" width="80" height="80" as="geometry" />
        </mxCell>
        <mxCell id="IvNzww2wgmAIkyjw9Zv5-36" value="" style="endArrow=classic;html=1;entryX=1;entryY=0.5;entryDx=0;entryDy=0;exitX=0.5;exitY=0;exitDx=0;exitDy=0;startArrow=block;startFill=1;" parent="V-b-HQtUx1xGGUiKB_HP-1" source="IvNzww2wgmAIkyjw9Zv5-33" target="IvNzww2wgmAIkyjw9Zv5-23" edge="1">
          <mxGeometry width="50" height="50" relative="1" as="geometry">
            <mxPoint x="480" y="450" as="sourcePoint" />
            <mxPoint x="530" y="400" as="targetPoint" />
            <Array as="points">
              <mxPoint x="580" y="320" />
            </Array>
          </mxGeometry>
        </mxCell>
        <mxCell id="IvNzww2wgmAIkyjw9Zv5-37" value="NOA (Cancel, Withdrawn, Decline etc...)" style="whiteSpace=wrap;html=1;aspect=fixed;fillColor=#dae8fc;strokeColor=#6c8ebf;" parent="V-b-HQtUx1xGGUiKB_HP-1" vertex="1">
          <mxGeometry x="385" y="560" width="80" height="80" as="geometry" />
        </mxCell>
        <mxCell id="IvNzww2wgmAIkyjw9Zv5-39" value="" style="endArrow=classic;startArrow=classic;html=1;entryX=0.5;entryY=1;entryDx=0;entryDy=0;exitX=1;exitY=0.5;exitDx=0;exitDy=0;" parent="V-b-HQtUx1xGGUiKB_HP-1" source="IvNzww2wgmAIkyjw9Zv5-37" target="IvNzww2wgmAIkyjw9Zv5-33" edge="1">
          <mxGeometry width="50" height="50" relative="1" as="geometry">
            <mxPoint x="530" y="540" as="sourcePoint" />
            <mxPoint x="580" y="490" as="targetPoint" />
            <Array as="points">
              <mxPoint x="580" y="600" />
            </Array>
          </mxGeometry>
        </mxCell>
        <mxCell id="IvNzww2wgmAIkyjw9Zv5-40" value="" style="endArrow=classic;startArrow=classic;html=1;entryX=0.5;entryY=1;entryDx=0;entryDy=0;exitX=0;exitY=0.5;exitDx=0;exitDy=0;" parent="V-b-HQtUx1xGGUiKB_HP-1" source="IvNzww2wgmAIkyjw9Zv5-37" target="IvNzww2wgmAIkyjw9Zv5-21" edge="1">
          <mxGeometry width="50" height="50" relative="1" as="geometry">
            <mxPoint x="270" y="610" as="sourcePoint" />
            <mxPoint x="320" y="560" as="targetPoint" />
            <Array as="points">
              <mxPoint x="260" y="600" />
            </Array>
          </mxGeometry>
        </mxCell>
        <mxCell id="d9RwSW8CbvToCwmyCG3v-2" value="" style="endArrow=classic;startArrow=classic;html=1;exitX=0.25;exitY=0;exitDx=0;exitDy=0;entryX=0.25;entryY=0;entryDx=0;entryDy=0;" edge="1" parent="V-b-HQtUx1xGGUiKB_HP-1" source="IvNzww2wgmAIkyjw9Zv5-19" target="IvNzww2wgmAIkyjw9Zv5-23">
          <mxGeometry width="50" height="50" relative="1" as="geometry">
            <mxPoint x="81" y="424" as="sourcePoint" />
            <mxPoint x="131" y="374" as="targetPoint" />
            <Array as="points">
              <mxPoint x="140" y="260" />
              <mxPoint x="400" y="260" />
            </Array>
          </mxGeometry>
        </mxCell>
      </root>
    </mxGraphModel>
  </diagram>
  <diagram id="78nLcjnqLFZzO-8Tf4lb" name="Retail">
    <mxGraphModel dx="2272" dy="794" grid="0" gridSize="10" guides="1" tooltips="1" connect="1" arrows="1" fold="1" page="1" pageScale="1" pageWidth="850" pageHeight="1100" math="0" shadow="0">
      <root>
        <mxCell id="Vnwm4c8hBKzlIiC-nxyH-0" />
        <mxCell id="Vnwm4c8hBKzlIiC-nxyH-1" parent="Vnwm4c8hBKzlIiC-nxyH-0" />
        <mxCell id="Vnwm4c8hBKzlIiC-nxyH-4" value="" style="edgeStyle=orthogonalEdgeStyle;rounded=0;orthogonalLoop=1;jettySize=auto;html=1;startArrow=block;startFill=1;endArrow=none;endFill=0;" edge="1" parent="Vnwm4c8hBKzlIiC-nxyH-1" source="Vnwm4c8hBKzlIiC-nxyH-2" target="Vnwm4c8hBKzlIiC-nxyH-3">
          <mxGeometry relative="1" as="geometry" />
        </mxCell>
        <mxCell id="Vnwm4c8hBKzlIiC-nxyH-6" value="" style="edgeStyle=orthogonalEdgeStyle;rounded=0;orthogonalLoop=1;jettySize=auto;html=1;startArrow=none;startFill=0;endArrow=block;endFill=1;" edge="1" parent="Vnwm4c8hBKzlIiC-nxyH-1" source="Vnwm4c8hBKzlIiC-nxyH-2" target="Vnwm4c8hBKzlIiC-nxyH-5">
          <mxGeometry relative="1" as="geometry" />
        </mxCell>
        <mxCell id="Vnwm4c8hBKzlIiC-nxyH-2" value="Appraisal Rev.&lt;br&gt;Value Determination" style="whiteSpace=wrap;html=1;aspect=fixed;" vertex="1" parent="Vnwm4c8hBKzlIiC-nxyH-1">
          <mxGeometry x="80" y="160" width="80" height="80" as="geometry" />
        </mxCell>
        <mxCell id="Vnwm4c8hBKzlIiC-nxyH-8" value="" style="edgeStyle=orthogonalEdgeStyle;rounded=0;orthogonalLoop=1;jettySize=auto;html=1;startArrow=none;startFill=0;endArrow=block;endFill=1;" edge="1" parent="Vnwm4c8hBKzlIiC-nxyH-1" source="Vnwm4c8hBKzlIiC-nxyH-3" target="Vnwm4c8hBKzlIiC-nxyH-7">
          <mxGeometry relative="1" as="geometry" />
        </mxCell>
        <mxCell id="Vnwm4c8hBKzlIiC-nxyH-3" value="Retail Channel" style="whiteSpace=wrap;html=1;aspect=fixed;" vertex="1" parent="Vnwm4c8hBKzlIiC-nxyH-1">
          <mxGeometry x="80" y="40" width="80" height="80" as="geometry" />
        </mxCell>
        <mxCell id="Vnwm4c8hBKzlIiC-nxyH-12" value="if InRule Validation&lt;br&gt;or Vendor error&lt;br&gt;or Unhandled error&amp;nbsp;&lt;br&gt;then fail" style="edgeStyle=orthogonalEdgeStyle;rounded=0;orthogonalLoop=1;jettySize=auto;html=1;startArrow=none;startFill=0;endArrow=block;endFill=1;" edge="1" parent="Vnwm4c8hBKzlIiC-nxyH-1" source="Vnwm4c8hBKzlIiC-nxyH-5" target="Vnwm4c8hBKzlIiC-nxyH-11">
          <mxGeometry x="0.475" y="42" relative="1" as="geometry">
            <mxPoint as="offset" />
          </mxGeometry>
        </mxCell>
        <mxCell id="Vnwm4c8hBKzlIiC-nxyH-5" value="System in Background will try to generate the Letter" style="whiteSpace=wrap;html=1;aspect=fixed;" vertex="1" parent="Vnwm4c8hBKzlIiC-nxyH-1">
          <mxGeometry x="80" y="280" width="80" height="80" as="geometry" />
        </mxCell>
        <mxCell id="Vnwm4c8hBKzlIiC-nxyH-10" value="" style="edgeStyle=orthogonalEdgeStyle;rounded=0;orthogonalLoop=1;jettySize=auto;html=1;startArrow=none;startFill=0;endArrow=block;endFill=1;" edge="1" parent="Vnwm4c8hBKzlIiC-nxyH-1" source="Vnwm4c8hBKzlIiC-nxyH-7" target="Vnwm4c8hBKzlIiC-nxyH-9">
          <mxGeometry relative="1" as="geometry" />
        </mxCell>
        <mxCell id="Vnwm4c8hBKzlIiC-nxyH-7" value="&lt;font style=&quot;font-size: 8px&quot;&gt;Property State = MN, VT, MA, UT, IL, NY (not applicable to Purchase), NJ&lt;/font&gt;" style="whiteSpace=wrap;html=1;aspect=fixed;" vertex="1" parent="Vnwm4c8hBKzlIiC-nxyH-1">
          <mxGeometry x="200" y="40" width="80" height="80" as="geometry" />
        </mxCell>
        <mxCell id="Vnwm4c8hBKzlIiC-nxyH-9" value="&lt;span style=&quot;font-size: 10px&quot;&gt;Not Canceled OR&lt;br&gt;Not Funded&lt;br&gt;OR&amp;nbsp;&lt;br&gt;Calculator Enabled&lt;br&gt;&lt;/span&gt;" style="whiteSpace=wrap;html=1;aspect=fixed;" vertex="1" parent="Vnwm4c8hBKzlIiC-nxyH-1">
          <mxGeometry x="320" y="40" width="80" height="80" as="geometry" />
        </mxCell>
        <mxCell id="Vnwm4c8hBKzlIiC-nxyH-14" value="Fail" style="edgeStyle=orthogonalEdgeStyle;rounded=0;orthogonalLoop=1;jettySize=auto;html=1;startArrow=none;startFill=0;endArrow=block;endFill=1;" edge="1" parent="Vnwm4c8hBKzlIiC-nxyH-1" source="Vnwm4c8hBKzlIiC-nxyH-11" target="Vnwm4c8hBKzlIiC-nxyH-13">
          <mxGeometry y="10" relative="1" as="geometry">
            <mxPoint as="offset" />
          </mxGeometry>
        </mxCell>
        <mxCell id="Vnwm4c8hBKzlIiC-nxyH-16" value="Success" style="edgeStyle=orthogonalEdgeStyle;rounded=0;orthogonalLoop=1;jettySize=auto;html=1;startArrow=none;startFill=0;endArrow=block;endFill=1;" edge="1" parent="Vnwm4c8hBKzlIiC-nxyH-1" source="Vnwm4c8hBKzlIiC-nxyH-11" target="Vnwm4c8hBKzlIiC-nxyH-15">
          <mxGeometry relative="1" as="geometry">
            <Array as="points">
              <mxPoint x="280" y="440" />
            </Array>
          </mxGeometry>
        </mxCell>
        <mxCell id="Vnwm4c8hBKzlIiC-nxyH-11" value="" style="rhombus;whiteSpace=wrap;html=1;" vertex="1" parent="Vnwm4c8hBKzlIiC-nxyH-1">
          <mxGeometry x="240" y="280" width="80" height="80" as="geometry" />
        </mxCell>
        <mxCell id="Vnwm4c8hBKzlIiC-nxyH-13" value="Send an Email to Processor2/Pipe.Mgr&lt;br&gt;Letter failed to generate" style="whiteSpace=wrap;html=1;" vertex="1" parent="Vnwm4c8hBKzlIiC-nxyH-1">
          <mxGeometry x="360" y="290" width="120" height="60" as="geometry" />
        </mxCell>
        <mxCell id="Vnwm4c8hBKzlIiC-nxyH-15" value="In Loan Files&lt;br&gt;Commitment Letter should be displayed" style="whiteSpace=wrap;html=1;" vertex="1" parent="Vnwm4c8hBKzlIiC-nxyH-1">
          <mxGeometry x="80" y="400" width="80" height="80" as="geometry" />
        </mxCell>
        <mxCell id="Vnwm4c8hBKzlIiC-nxyH-24" value="" style="edgeStyle=orthogonalEdgeStyle;rounded=0;orthogonalLoop=1;jettySize=auto;html=1;startArrow=none;startFill=0;endArrow=block;endFill=1;" edge="1" parent="Vnwm4c8hBKzlIiC-nxyH-1" source="Vnwm4c8hBKzlIiC-nxyH-17" target="Vnwm4c8hBKzlIiC-nxyH-23">
          <mxGeometry relative="1" as="geometry" />
        </mxCell>
        <mxCell id="Vnwm4c8hBKzlIiC-nxyH-54" value="1" style="edgeStyle=orthogonalEdgeStyle;rounded=0;orthogonalLoop=1;jettySize=auto;html=1;startArrow=none;startFill=0;endArrow=block;endFill=1;" edge="1" parent="Vnwm4c8hBKzlIiC-nxyH-1" source="Vnwm4c8hBKzlIiC-nxyH-17" target="Vnwm4c8hBKzlIiC-nxyH-23">
          <mxGeometry y="-18" relative="1" as="geometry">
            <mxPoint as="offset" />
          </mxGeometry>
        </mxCell>
        <mxCell id="Vnwm4c8hBKzlIiC-nxyH-17" value="Print Retail Commitment Letter&lt;br&gt;Job(A)" style="whiteSpace=wrap;html=1;aspect=fixed;" vertex="1" parent="Vnwm4c8hBKzlIiC-nxyH-1">
          <mxGeometry x="78" y="520" width="80" height="80" as="geometry" />
        </mxCell>
        <mxCell id="Vnwm4c8hBKzlIiC-nxyH-19" value="" style="edgeStyle=orthogonalEdgeStyle;rounded=0;orthogonalLoop=1;jettySize=auto;html=1;startArrow=none;startFill=0;endArrow=block;endFill=1;" edge="1" parent="Vnwm4c8hBKzlIiC-nxyH-1" source="Vnwm4c8hBKzlIiC-nxyH-18" target="Vnwm4c8hBKzlIiC-nxyH-3">
          <mxGeometry relative="1" as="geometry" />
        </mxCell>
        <mxCell id="Vnwm4c8hBKzlIiC-nxyH-18" value="Helos&lt;br&gt;User" style="shape=umlActor;verticalLabelPosition=bottom;verticalAlign=top;html=1;outlineConnect=0;" vertex="1" parent="Vnwm4c8hBKzlIiC-nxyH-1">
          <mxGeometry x="20" y="50" width="30" height="60" as="geometry" />
        </mxCell>
        <mxCell id="Vnwm4c8hBKzlIiC-nxyH-21" value="" style="edgeStyle=orthogonalEdgeStyle;rounded=0;orthogonalLoop=1;jettySize=auto;html=1;startArrow=none;startFill=0;endArrow=block;endFill=1;" edge="1" parent="Vnwm4c8hBKzlIiC-nxyH-1" source="Vnwm4c8hBKzlIiC-nxyH-20" target="Vnwm4c8hBKzlIiC-nxyH-17">
          <mxGeometry relative="1" as="geometry" />
        </mxCell>
        <mxCell id="Vnwm4c8hBKzlIiC-nxyH-20" value="Hangfire" style="pointerEvents=1;shadow=0;dashed=0;html=1;strokeColor=none;labelPosition=center;verticalLabelPosition=bottom;verticalAlign=top;align=center;fillColor=#515151;shape=mxgraph.mscae.system_center.roles" vertex="1" parent="Vnwm4c8hBKzlIiC-nxyH-1">
          <mxGeometry x="12" y="535" width="42" height="50" as="geometry" />
        </mxCell>
        <mxCell id="Vnwm4c8hBKzlIiC-nxyH-22" value="Jobs run at every night at 11pm&lt;br&gt;Picks the latest Commitment letter generated for a Retail loan&lt;br&gt;first time: between 1/1 12 AM and 1/1 11pm&lt;br&gt;OR&amp;nbsp;&lt;br&gt;Last successful runtime yesterday 11pm and today 11pm&amp;nbsp;&lt;br&gt;1/1 11pm and 1/2 11pm" style="text;html=1;strokeColor=none;fillColor=none;align=center;verticalAlign=middle;whiteSpace=wrap;rounded=0;" vertex="1" parent="Vnwm4c8hBKzlIiC-nxyH-1">
          <mxGeometry x="168" y="530" width="380" height="50" as="geometry" />
        </mxCell>
        <mxCell id="Vnwm4c8hBKzlIiC-nxyH-26" value="2" style="edgeStyle=orthogonalEdgeStyle;rounded=0;orthogonalLoop=1;jettySize=auto;html=1;startArrow=none;startFill=0;endArrow=block;endFill=1;" edge="1" parent="Vnwm4c8hBKzlIiC-nxyH-1" source="Vnwm4c8hBKzlIiC-nxyH-23" target="Vnwm4c8hBKzlIiC-nxyH-25">
          <mxGeometry y="-18" relative="1" as="geometry">
            <mxPoint as="offset" />
          </mxGeometry>
        </mxCell>
        <mxCell id="Vnwm4c8hBKzlIiC-nxyH-23" value="Creates a Batch&lt;br&gt;&quot;Print Retail Commitment Letter&quot;" style="whiteSpace=wrap;html=1;aspect=fixed;" vertex="1" parent="Vnwm4c8hBKzlIiC-nxyH-1">
          <mxGeometry x="78" y="640" width="80" height="80" as="geometry" />
        </mxCell>
        <mxCell id="Vnwm4c8hBKzlIiC-nxyH-28" value="3" style="edgeStyle=orthogonalEdgeStyle;rounded=0;orthogonalLoop=1;jettySize=auto;html=1;startArrow=none;startFill=0;endArrow=block;endFill=1;" edge="1" parent="Vnwm4c8hBKzlIiC-nxyH-1" source="Vnwm4c8hBKzlIiC-nxyH-25" target="Vnwm4c8hBKzlIiC-nxyH-27">
          <mxGeometry x="0.1" y="10" relative="1" as="geometry">
            <mxPoint as="offset" />
          </mxGeometry>
        </mxCell>
        <mxCell id="Vnwm4c8hBKzlIiC-nxyH-25" value="Find all the loan id and latest file id to be printed." style="whiteSpace=wrap;html=1;aspect=fixed;" vertex="1" parent="Vnwm4c8hBKzlIiC-nxyH-1">
          <mxGeometry x="78" y="760" width="80" height="80" as="geometry" />
        </mxCell>
        <mxCell id="Vnwm4c8hBKzlIiC-nxyH-32" value="3b. 2 loans found" style="edgeStyle=orthogonalEdgeStyle;rounded=0;orthogonalLoop=1;jettySize=auto;html=1;entryX=1;entryY=0.5;entryDx=0;entryDy=0;startArrow=none;startFill=0;endArrow=block;endFill=1;" edge="1" parent="Vnwm4c8hBKzlIiC-nxyH-1" source="Vnwm4c8hBKzlIiC-nxyH-27" target="Vnwm4c8hBKzlIiC-nxyH-31">
          <mxGeometry relative="1" as="geometry">
            <Array as="points">
              <mxPoint x="238" y="920" />
            </Array>
          </mxGeometry>
        </mxCell>
        <mxCell id="Vnwm4c8hBKzlIiC-nxyH-52" value="3a. 0 Loans" style="edgeStyle=orthogonalEdgeStyle;rounded=0;orthogonalLoop=1;jettySize=auto;html=1;exitX=0.5;exitY=0;exitDx=0;exitDy=0;startArrow=none;startFill=0;endArrow=block;endFill=1;" edge="1" parent="Vnwm4c8hBKzlIiC-nxyH-1" source="Vnwm4c8hBKzlIiC-nxyH-27" target="Vnwm4c8hBKzlIiC-nxyH-50">
          <mxGeometry y="-22" relative="1" as="geometry">
            <mxPoint as="offset" />
          </mxGeometry>
        </mxCell>
        <mxCell id="Vnwm4c8hBKzlIiC-nxyH-27" value="" style="rhombus;whiteSpace=wrap;html=1;" vertex="1" parent="Vnwm4c8hBKzlIiC-nxyH-1">
          <mxGeometry x="198" y="760" width="80" height="80" as="geometry" />
        </mxCell>
        <mxCell id="Vnwm4c8hBKzlIiC-nxyH-34" value="4" style="edgeStyle=orthogonalEdgeStyle;rounded=0;orthogonalLoop=1;jettySize=auto;html=1;startArrow=none;startFill=0;endArrow=block;endFill=1;" edge="1" parent="Vnwm4c8hBKzlIiC-nxyH-1" source="Vnwm4c8hBKzlIiC-nxyH-31" target="Vnwm4c8hBKzlIiC-nxyH-33">
          <mxGeometry x="0.1475" y="-8" relative="1" as="geometry">
            <Array as="points">
              <mxPoint x="118" y="1040" />
            </Array>
            <mxPoint as="offset" />
          </mxGeometry>
        </mxCell>
        <mxCell id="Vnwm4c8hBKzlIiC-nxyH-31" value="Create BatchItem&lt;br&gt;and Enqueue PrintJob for each BatchItem" style="whiteSpace=wrap;html=1;aspect=fixed;" vertex="1" parent="Vnwm4c8hBKzlIiC-nxyH-1">
          <mxGeometry x="78" y="880" width="80" height="80" as="geometry" />
        </mxCell>
        <mxCell id="Vnwm4c8hBKzlIiC-nxyH-37" value="5" style="edgeStyle=orthogonalEdgeStyle;rounded=0;orthogonalLoop=1;jettySize=auto;html=1;startArrow=none;startFill=0;endArrow=block;endFill=1;" edge="1" parent="Vnwm4c8hBKzlIiC-nxyH-1" source="Vnwm4c8hBKzlIiC-nxyH-33" target="Vnwm4c8hBKzlIiC-nxyH-36">
          <mxGeometry y="10" relative="1" as="geometry">
            <mxPoint as="offset" />
          </mxGeometry>
        </mxCell>
        <mxCell id="Vnwm4c8hBKzlIiC-nxyH-33" value="Print Job(B)&lt;br&gt;BatchItem&lt;br&gt;Processing&lt;br&gt;parallel&amp;nbsp;2 print jobs running" style="whiteSpace=wrap;html=1;aspect=fixed;" vertex="1" parent="Vnwm4c8hBKzlIiC-nxyH-1">
          <mxGeometry x="160" y="1000" width="80" height="80" as="geometry" />
        </mxCell>
        <mxCell id="Vnwm4c8hBKzlIiC-nxyH-39" value="6" style="edgeStyle=orthogonalEdgeStyle;rounded=0;orthogonalLoop=1;jettySize=auto;html=1;startArrow=none;startFill=0;endArrow=block;endFill=1;entryX=0;entryY=0.5;entryDx=0;entryDy=0;" edge="1" parent="Vnwm4c8hBKzlIiC-nxyH-1" source="Vnwm4c8hBKzlIiC-nxyH-36" target="Vnwm4c8hBKzlIiC-nxyH-38">
          <mxGeometry relative="1" as="geometry">
            <Array as="points">
              <mxPoint x="320" y="920" />
            </Array>
          </mxGeometry>
        </mxCell>
        <mxCell id="Vnwm4c8hBKzlIiC-nxyH-36" value="Load the PDF&lt;br&gt;and start printing" style="whiteSpace=wrap;html=1;aspect=fixed;" vertex="1" parent="Vnwm4c8hBKzlIiC-nxyH-1">
          <mxGeometry x="280" y="1000" width="80" height="80" as="geometry" />
        </mxCell>
        <mxCell id="Vnwm4c8hBKzlIiC-nxyH-47" value="6b.Print Success" style="edgeStyle=orthogonalEdgeStyle;rounded=0;orthogonalLoop=1;jettySize=auto;html=1;entryX=0.5;entryY=0;entryDx=0;entryDy=0;startArrow=none;startFill=0;endArrow=block;endFill=1;" edge="1" parent="Vnwm4c8hBKzlIiC-nxyH-1" source="Vnwm4c8hBKzlIiC-nxyH-38" target="Vnwm4c8hBKzlIiC-nxyH-46">
          <mxGeometry x="-0.5" y="-20" relative="1" as="geometry">
            <Array as="points">
              <mxPoint x="400" y="980" />
              <mxPoint x="440" y="980" />
            </Array>
            <mxPoint x="-20" y="-20" as="offset" />
          </mxGeometry>
        </mxCell>
        <mxCell id="Vnwm4c8hBKzlIiC-nxyH-53" value="6a. Failed" style="edgeStyle=orthogonalEdgeStyle;rounded=0;orthogonalLoop=1;jettySize=auto;html=1;entryX=0.5;entryY=1;entryDx=0;entryDy=0;startArrow=none;startFill=0;endArrow=block;endFill=1;" edge="1" parent="Vnwm4c8hBKzlIiC-nxyH-1" source="Vnwm4c8hBKzlIiC-nxyH-38" target="Vnwm4c8hBKzlIiC-nxyH-40">
          <mxGeometry y="20" relative="1" as="geometry">
            <mxPoint as="offset" />
          </mxGeometry>
        </mxCell>
        <mxCell id="Vnwm4c8hBKzlIiC-nxyH-38" value="" style="rhombus;whiteSpace=wrap;html=1;" vertex="1" parent="Vnwm4c8hBKzlIiC-nxyH-1">
          <mxGeometry x="360" y="880" width="80" height="80" as="geometry" />
        </mxCell>
        <mxCell id="Vnwm4c8hBKzlIiC-nxyH-43" value="7" style="edgeStyle=orthogonalEdgeStyle;rounded=0;orthogonalLoop=1;jettySize=auto;html=1;startArrow=none;startFill=0;endArrow=block;endFill=1;" edge="1" parent="Vnwm4c8hBKzlIiC-nxyH-1" source="Vnwm4c8hBKzlIiC-nxyH-40" target="Vnwm4c8hBKzlIiC-nxyH-42">
          <mxGeometry y="10" relative="1" as="geometry">
            <mxPoint as="offset" />
          </mxGeometry>
        </mxCell>
        <mxCell id="Vnwm4c8hBKzlIiC-nxyH-40" value="Update Batch &amp;amp; BatchItem Status Failed.&lt;br&gt;or Partial Complete" style="whiteSpace=wrap;html=1;aspect=fixed;" vertex="1" parent="Vnwm4c8hBKzlIiC-nxyH-1">
          <mxGeometry x="360" y="760" width="80" height="80" as="geometry" />
        </mxCell>
        <mxCell id="Vnwm4c8hBKzlIiC-nxyH-45" value="8" style="edgeStyle=orthogonalEdgeStyle;rounded=0;orthogonalLoop=1;jettySize=auto;html=1;startArrow=none;startFill=0;endArrow=block;endFill=1;" edge="1" parent="Vnwm4c8hBKzlIiC-nxyH-1" source="Vnwm4c8hBKzlIiC-nxyH-42" target="Vnwm4c8hBKzlIiC-nxyH-44">
          <mxGeometry y="10" relative="1" as="geometry">
            <mxPoint as="offset" />
          </mxGeometry>
        </mxCell>
        <mxCell id="Vnwm4c8hBKzlIiC-nxyH-42" value="Email Prod Support&lt;br&gt;Printing failed" style="whiteSpace=wrap;html=1;aspect=fixed;" vertex="1" parent="Vnwm4c8hBKzlIiC-nxyH-1">
          <mxGeometry x="480" y="760" width="80" height="80" as="geometry" />
        </mxCell>
        <mxCell id="Vnwm4c8hBKzlIiC-nxyH-44" value="Fail the&amp;nbsp; Hangfire Print&lt;br&gt;Job (B)" style="whiteSpace=wrap;html=1;aspect=fixed;" vertex="1" parent="Vnwm4c8hBKzlIiC-nxyH-1">
          <mxGeometry x="600" y="760" width="80" height="80" as="geometry" />
        </mxCell>
        <mxCell id="Vnwm4c8hBKzlIiC-nxyH-49" value="7" style="edgeStyle=orthogonalEdgeStyle;rounded=0;orthogonalLoop=1;jettySize=auto;html=1;startArrow=none;startFill=0;endArrow=block;endFill=1;" edge="1" parent="Vnwm4c8hBKzlIiC-nxyH-1" source="Vnwm4c8hBKzlIiC-nxyH-46" target="Vnwm4c8hBKzlIiC-nxyH-48">
          <mxGeometry y="10" relative="1" as="geometry">
            <mxPoint as="offset" />
          </mxGeometry>
        </mxCell>
        <mxCell id="Vnwm4c8hBKzlIiC-nxyH-46" value="Store Comment in HELOS" style="whiteSpace=wrap;html=1;aspect=fixed;" vertex="1" parent="Vnwm4c8hBKzlIiC-nxyH-1">
          <mxGeometry x="400" y="1000" width="80" height="80" as="geometry" />
        </mxCell>
        <mxCell id="Vnwm4c8hBKzlIiC-nxyH-56" value="8" style="edgeStyle=orthogonalEdgeStyle;rounded=0;orthogonalLoop=1;jettySize=auto;html=1;startArrow=none;startFill=0;endArrow=block;endFill=1;" edge="1" parent="Vnwm4c8hBKzlIiC-nxyH-1" source="Vnwm4c8hBKzlIiC-nxyH-48" target="Vnwm4c8hBKzlIiC-nxyH-55">
          <mxGeometry y="10" relative="1" as="geometry">
            <mxPoint as="offset" />
          </mxGeometry>
        </mxCell>
        <mxCell id="Vnwm4c8hBKzlIiC-nxyH-48" value="Create New Commitment Letter Follow-up Reminder" style="whiteSpace=wrap;html=1;aspect=fixed;" vertex="1" parent="Vnwm4c8hBKzlIiC-nxyH-1">
          <mxGeometry x="520" y="1000" width="80" height="80" as="geometry" />
        </mxCell>
        <mxCell id="Vnwm4c8hBKzlIiC-nxyH-50" value="No Loan / File found then Mark the batch as completed." style="whiteSpace=wrap;html=1;aspect=fixed;" vertex="1" parent="Vnwm4c8hBKzlIiC-nxyH-1">
          <mxGeometry x="198" y="640" width="80" height="80" as="geometry" />
        </mxCell>
        <mxCell id="Vnwm4c8hBKzlIiC-nxyH-55" value="Update Batch &amp;amp; BatchItem Status Success" style="whiteSpace=wrap;html=1;aspect=fixed;" vertex="1" parent="Vnwm4c8hBKzlIiC-nxyH-1">
          <mxGeometry x="640" y="1000" width="80" height="80" as="geometry" />
        </mxCell>
        <mxCell id="Vnwm4c8hBKzlIiC-nxyH-57" value="" style="endArrow=none;dashed=1;html=1;dashPattern=1 3;strokeWidth=2;" edge="1" parent="Vnwm4c8hBKzlIiC-nxyH-1">
          <mxGeometry width="50" height="50" relative="1" as="geometry">
            <mxPoint x="10" y="500" as="sourcePoint" />
            <mxPoint x="820" y="500" as="targetPoint" />
          </mxGeometry>
        </mxCell>
        <mxCell id="Vnwm4c8hBKzlIiC-nxyH-58" value="Job (A) ends here as succeeded" style="text;html=1;strokeColor=none;fillColor=none;align=center;verticalAlign=middle;whiteSpace=wrap;rounded=0;" vertex="1" parent="Vnwm4c8hBKzlIiC-nxyH-1">
          <mxGeometry x="-1" y="891" width="72" height="64" as="geometry" />
        </mxCell>
        <mxCell id="Vnwm4c8hBKzlIiC-nxyH-60" value="Job (B) ends here as failed" style="text;html=1;strokeColor=none;fillColor=none;align=center;verticalAlign=middle;whiteSpace=wrap;rounded=0;" vertex="1" parent="Vnwm4c8hBKzlIiC-nxyH-1">
          <mxGeometry x="701" y="768" width="72" height="64" as="geometry" />
        </mxCell>
        <mxCell id="Vnwm4c8hBKzlIiC-nxyH-61" value="Job (B) ends here as succeeded" style="text;html=1;strokeColor=none;fillColor=none;align=center;verticalAlign=middle;whiteSpace=wrap;rounded=0;" vertex="1" parent="Vnwm4c8hBKzlIiC-nxyH-1">
          <mxGeometry x="744" y="1006" width="72" height="64" as="geometry" />
        </mxCell>
      </root>
    </mxGraphModel>
  </diagram>
  <diagram id="2gNuVg6_cvP8rSM3NrJm" name="WS/CLP">
    <mxGraphModel dx="1422" dy="794" grid="0" gridSize="10" guides="1" tooltips="1" connect="1" arrows="1" fold="1" page="1" pageScale="1" pageWidth="850" pageHeight="1100" math="0" shadow="0">
      <root>
        <mxCell id="NSxLioo0HMQ3cZ4GGgc0-0" />
        <mxCell id="NSxLioo0HMQ3cZ4GGgc0-1" parent="NSxLioo0HMQ3cZ4GGgc0-0" />
        <mxCell id="klkxdpEScAte2LMJM8kQ-2" style="edgeStyle=orthogonalEdgeStyle;rounded=0;orthogonalLoop=1;jettySize=auto;html=1;entryX=0;entryY=0.5;entryDx=0;entryDy=0;startArrow=none;startFill=0;endArrow=block;endFill=1;" edge="1" parent="NSxLioo0HMQ3cZ4GGgc0-1" source="NSxLioo0HMQ3cZ4GGgc0-3" target="klkxdpEScAte2LMJM8kQ-0">
          <mxGeometry relative="1" as="geometry" />
        </mxCell>
        <mxCell id="5PdvI1oVPV6XVF7dX-At-5" value="2" style="edgeStyle=orthogonalEdgeStyle;rounded=0;orthogonalLoop=1;jettySize=auto;html=1;entryX=0.5;entryY=0;entryDx=0;entryDy=0;startArrow=none;startFill=0;endArrow=block;endFill=1;" edge="1" parent="NSxLioo0HMQ3cZ4GGgc0-1" source="NSxLioo0HMQ3cZ4GGgc0-3" target="5PdvI1oVPV6XVF7dX-At-0">
          <mxGeometry relative="1" as="geometry" />
        </mxCell>
        <mxCell id="NSxLioo0HMQ3cZ4GGgc0-3" value="WS / Hyb CLP" style="whiteSpace=wrap;html=1;aspect=fixed;" vertex="1" parent="NSxLioo0HMQ3cZ4GGgc0-1">
          <mxGeometry x="83" y="40" width="80" height="80" as="geometry" />
        </mxCell>
        <mxCell id="NSxLioo0HMQ3cZ4GGgc0-5" value="1" style="edgeStyle=orthogonalEdgeStyle;rounded=0;orthogonalLoop=1;jettySize=auto;html=1;entryX=0;entryY=0.5;entryDx=0;entryDy=0;startArrow=none;startFill=0;endArrow=block;endFill=1;" edge="1" parent="NSxLioo0HMQ3cZ4GGgc0-1" source="NSxLioo0HMQ3cZ4GGgc0-4" target="NSxLioo0HMQ3cZ4GGgc0-3">
          <mxGeometry relative="1" as="geometry" />
        </mxCell>
        <mxCell id="NSxLioo0HMQ3cZ4GGgc0-4" value="HELOS &lt;br&gt;USER" style="shape=umlActor;verticalLabelPosition=bottom;verticalAlign=top;html=1;outlineConnect=0;" vertex="1" parent="NSxLioo0HMQ3cZ4GGgc0-1">
          <mxGeometry x="13" y="50" width="30" height="60" as="geometry" />
        </mxCell>
        <mxCell id="klkxdpEScAte2LMJM8kQ-3" style="edgeStyle=orthogonalEdgeStyle;rounded=0;orthogonalLoop=1;jettySize=auto;html=1;entryX=0;entryY=0.5;entryDx=0;entryDy=0;startArrow=none;startFill=0;endArrow=block;endFill=1;" edge="1" parent="NSxLioo0HMQ3cZ4GGgc0-1" source="klkxdpEScAte2LMJM8kQ-0" target="klkxdpEScAte2LMJM8kQ-1">
          <mxGeometry relative="1" as="geometry" />
        </mxCell>
        <mxCell id="klkxdpEScAte2LMJM8kQ-0" value="&lt;font style=&quot;font-size: 8px&quot;&gt;Property State = MN, VT, MA, UT, IL, NY (not applicable to Purchase), NJ&lt;/font&gt;" style="whiteSpace=wrap;html=1;aspect=fixed;" vertex="1" parent="NSxLioo0HMQ3cZ4GGgc0-1">
          <mxGeometry x="203" y="40" width="80" height="80" as="geometry" />
        </mxCell>
        <mxCell id="klkxdpEScAte2LMJM8kQ-1" value="&lt;span style=&quot;font-size: 10px&quot;&gt;Not Canceled OR&lt;br&gt;Not Funded&lt;br&gt;OR&amp;nbsp;&lt;br&gt;Calculator Enabled&lt;br&gt;&lt;/span&gt;" style="whiteSpace=wrap;html=1;aspect=fixed;" vertex="1" parent="NSxLioo0HMQ3cZ4GGgc0-1">
          <mxGeometry x="323" y="40" width="80" height="80" as="geometry" />
        </mxCell>
        <mxCell id="4TkWEprui47BmuY2ACx3-3" value="3" style="edgeStyle=orthogonalEdgeStyle;rounded=0;orthogonalLoop=1;jettySize=auto;html=1;entryX=0;entryY=0.5;entryDx=0;entryDy=0;entryPerimeter=0;startArrow=none;startFill=0;endArrow=block;endFill=1;" edge="1" parent="NSxLioo0HMQ3cZ4GGgc0-1" source="5PdvI1oVPV6XVF7dX-At-0" target="4TkWEprui47BmuY2ACx3-0">
          <mxGeometry relative="1" as="geometry" />
        </mxCell>
        <mxCell id="4TkWEprui47BmuY2ACx3-43" value="4" style="edgeStyle=orthogonalEdgeStyle;rounded=0;orthogonalLoop=1;jettySize=auto;html=1;startArrow=none;startFill=0;endArrow=block;endFill=1;" edge="1" parent="NSxLioo0HMQ3cZ4GGgc0-1" source="5PdvI1oVPV6XVF7dX-At-0" target="NSxLioo0HMQ3cZ4GGgc0-4">
          <mxGeometry relative="1" as="geometry" />
        </mxCell>
        <mxCell id="5PdvI1oVPV6XVF7dX-At-0" value="Appraisal Rev.&lt;br&gt;Value Determination" style="whiteSpace=wrap;html=1;aspect=fixed;" vertex="1" parent="NSxLioo0HMQ3cZ4GGgc0-1">
          <mxGeometry x="83" y="160" width="80" height="80" as="geometry" />
        </mxCell>
        <mxCell id="4TkWEprui47BmuY2ACx3-6" value="2" style="edgeStyle=orthogonalEdgeStyle;rounded=0;orthogonalLoop=1;jettySize=auto;html=1;startArrow=none;startFill=0;endArrow=block;endFill=1;" edge="1" parent="NSxLioo0HMQ3cZ4GGgc0-1" source="tpYR8w4WRNjMnwgAiciD-3" target="4TkWEprui47BmuY2ACx3-5">
          <mxGeometry relative="1" as="geometry" />
        </mxCell>
        <mxCell id="tpYR8w4WRNjMnwgAiciD-3" value="Job Enqueued to Gen Comm Letter" style="whiteSpace=wrap;html=1;aspect=fixed;" vertex="1" parent="NSxLioo0HMQ3cZ4GGgc0-1">
          <mxGeometry x="283" y="160" width="80" height="80" as="geometry" />
        </mxCell>
        <mxCell id="4TkWEprui47BmuY2ACx3-4" value="1" style="edgeStyle=orthogonalEdgeStyle;rounded=0;orthogonalLoop=1;jettySize=auto;html=1;entryX=0;entryY=0.5;entryDx=0;entryDy=0;startArrow=none;startFill=0;endArrow=block;endFill=1;" edge="1" parent="NSxLioo0HMQ3cZ4GGgc0-1" source="4TkWEprui47BmuY2ACx3-0" target="tpYR8w4WRNjMnwgAiciD-3">
          <mxGeometry relative="1" as="geometry" />
        </mxCell>
        <mxCell id="4TkWEprui47BmuY2ACx3-0" value="Hangfire" style="pointerEvents=1;shadow=0;dashed=0;html=1;strokeColor=none;labelPosition=center;verticalLabelPosition=bottom;verticalAlign=top;align=center;fillColor=#515151;shape=mxgraph.mscae.system_center.roles" vertex="1" parent="NSxLioo0HMQ3cZ4GGgc0-1">
          <mxGeometry x="203" y="175" width="42" height="50" as="geometry" />
        </mxCell>
        <mxCell id="4TkWEprui47BmuY2ACx3-10" value="3" style="edgeStyle=orthogonalEdgeStyle;rounded=0;orthogonalLoop=1;jettySize=auto;html=1;startArrow=none;startFill=0;endArrow=block;endFill=1;" edge="1" parent="NSxLioo0HMQ3cZ4GGgc0-1" source="4TkWEprui47BmuY2ACx3-5" target="4TkWEprui47BmuY2ACx3-9">
          <mxGeometry relative="1" as="geometry" />
        </mxCell>
        <mxCell id="4TkWEprui47BmuY2ACx3-5" value="System in Background will try to generate the Letter" style="whiteSpace=wrap;html=1;aspect=fixed;" vertex="1" parent="NSxLioo0HMQ3cZ4GGgc0-1">
          <mxGeometry x="403" y="160" width="80" height="80" as="geometry" />
        </mxCell>
        <mxCell id="4TkWEprui47BmuY2ACx3-12" value="3a. Fail" style="edgeStyle=orthogonalEdgeStyle;rounded=0;orthogonalLoop=1;jettySize=auto;html=1;startArrow=none;startFill=0;endArrow=block;endFill=1;" edge="1" parent="NSxLioo0HMQ3cZ4GGgc0-1" source="4TkWEprui47BmuY2ACx3-9" target="4TkWEprui47BmuY2ACx3-11">
          <mxGeometry x="-0.5" y="10" relative="1" as="geometry">
            <mxPoint as="offset" />
          </mxGeometry>
        </mxCell>
        <mxCell id="4TkWEprui47BmuY2ACx3-15" value="3b. Pass" style="edgeStyle=orthogonalEdgeStyle;rounded=0;orthogonalLoop=1;jettySize=auto;html=1;startArrow=none;startFill=0;endArrow=block;endFill=1;entryX=0.5;entryY=0;entryDx=0;entryDy=0;" edge="1" parent="NSxLioo0HMQ3cZ4GGgc0-1" source="4TkWEprui47BmuY2ACx3-9" target="4TkWEprui47BmuY2ACx3-18">
          <mxGeometry x="-0.5" y="-20" relative="1" as="geometry">
            <mxPoint x="563" y="280" as="targetPoint" />
            <mxPoint as="offset" />
          </mxGeometry>
        </mxCell>
        <mxCell id="nvCHzbPx1Ij0sgO49Gp0-2" value="3c. Unhandled Error" style="edgeStyle=orthogonalEdgeStyle;rounded=0;orthogonalLoop=1;jettySize=auto;html=1;exitX=0.5;exitY=0;exitDx=0;exitDy=0;entryX=0.5;entryY=1;entryDx=0;entryDy=0;startArrow=none;startFill=0;endArrow=block;endFill=1;" edge="1" parent="NSxLioo0HMQ3cZ4GGgc0-1" source="4TkWEprui47BmuY2ACx3-9" target="nvCHzbPx1Ij0sgO49Gp0-0">
          <mxGeometry relative="1" as="geometry" />
        </mxCell>
        <mxCell id="4TkWEprui47BmuY2ACx3-9" value="InRule Validation" style="rhombus;whiteSpace=wrap;html=1;" vertex="1" parent="NSxLioo0HMQ3cZ4GGgc0-1">
          <mxGeometry x="523" y="160" width="80" height="80" as="geometry" />
        </mxCell>
        <mxCell id="4TkWEprui47BmuY2ACx3-14" value="5" style="edgeStyle=orthogonalEdgeStyle;rounded=0;orthogonalLoop=1;jettySize=auto;html=1;startArrow=none;startFill=0;endArrow=block;endFill=1;" edge="1" parent="NSxLioo0HMQ3cZ4GGgc0-1" source="4TkWEprui47BmuY2ACx3-11" target="4TkWEprui47BmuY2ACx3-13">
          <mxGeometry relative="1" as="geometry" />
        </mxCell>
        <mxCell id="4TkWEprui47BmuY2ACx3-11" value="Send an Email to Processor2 / Pipe.Mgr&lt;br&gt;Letter failed" style="whiteSpace=wrap;html=1;aspect=fixed;" vertex="1" parent="NSxLioo0HMQ3cZ4GGgc0-1">
          <mxGeometry x="643" y="160" width="80" height="80" as="geometry" />
        </mxCell>
        <mxCell id="4TkWEprui47BmuY2ACx3-13" value="Job (A)&lt;br&gt;ends here as succeeded" style="whiteSpace=wrap;html=1;aspect=fixed;" vertex="1" parent="NSxLioo0HMQ3cZ4GGgc0-1">
          <mxGeometry x="763" y="160" width="80" height="80" as="geometry" />
        </mxCell>
        <mxCell id="4TkWEprui47BmuY2ACx3-19" value="4b. Vendor&lt;br&gt;Error" style="edgeStyle=orthogonalEdgeStyle;rounded=0;orthogonalLoop=1;jettySize=auto;html=1;startArrow=none;startFill=0;endArrow=block;endFill=1;" edge="1" parent="NSxLioo0HMQ3cZ4GGgc0-1" source="4TkWEprui47BmuY2ACx3-18" target="4TkWEprui47BmuY2ACx3-11">
          <mxGeometry x="-0.6923" y="-20" relative="1" as="geometry">
            <Array as="points">
              <mxPoint x="653" y="320" />
            </Array>
            <mxPoint as="offset" />
          </mxGeometry>
        </mxCell>
        <mxCell id="4TkWEprui47BmuY2ACx3-38" value="&lt;span style=&quot;color: rgb(0 , 0 , 0) ; font-family: &amp;#34;helvetica&amp;#34; ; font-size: 11px ; font-style: normal ; font-weight: 400 ; letter-spacing: normal ; text-align: center ; text-indent: 0px ; text-transform: none ; word-spacing: 0px ; background-color: rgb(255 , 255 , 255) ; display: inline ; float: none&quot;&gt;4a. Letter Recd. &lt;br&gt;from Vendor&lt;/span&gt;" style="edgeStyle=orthogonalEdgeStyle;rounded=0;orthogonalLoop=1;jettySize=auto;html=1;entryX=1;entryY=0.5;entryDx=0;entryDy=0;startArrow=none;startFill=0;endArrow=block;endFill=1;" edge="1" parent="NSxLioo0HMQ3cZ4GGgc0-1" source="4TkWEprui47BmuY2ACx3-18" target="4TkWEprui47BmuY2ACx3-22">
          <mxGeometry x="-0.5" y="20" relative="1" as="geometry">
            <mxPoint as="offset" />
          </mxGeometry>
        </mxCell>
        <mxCell id="4TkWEprui47BmuY2ACx3-18" value="Accenture / Baydocs" style="rhombus;whiteSpace=wrap;html=1;" vertex="1" parent="NSxLioo0HMQ3cZ4GGgc0-1">
          <mxGeometry x="523" y="280" width="80" height="80" as="geometry" />
        </mxCell>
        <mxCell id="4TkWEprui47BmuY2ACx3-26" value="" style="edgeStyle=orthogonalEdgeStyle;rounded=0;orthogonalLoop=1;jettySize=auto;html=1;startArrow=none;startFill=0;endArrow=block;endFill=1;" edge="1" parent="NSxLioo0HMQ3cZ4GGgc0-1" source="4TkWEprui47BmuY2ACx3-22" target="4TkWEprui47BmuY2ACx3-25">
          <mxGeometry relative="1" as="geometry" />
        </mxCell>
        <mxCell id="4TkWEprui47BmuY2ACx3-44" value="5" style="edgeStyle=orthogonalEdgeStyle;rounded=0;orthogonalLoop=1;jettySize=auto;html=1;startArrow=none;startFill=0;endArrow=block;endFill=1;" edge="1" parent="NSxLioo0HMQ3cZ4GGgc0-1" source="4TkWEprui47BmuY2ACx3-22" target="4TkWEprui47BmuY2ACx3-25">
          <mxGeometry relative="1" as="geometry" />
        </mxCell>
        <mxCell id="4TkWEprui47BmuY2ACx3-22" value="Store in Loan&lt;br&gt;Files" style="whiteSpace=wrap;html=1;" vertex="1" parent="NSxLioo0HMQ3cZ4GGgc0-1">
          <mxGeometry x="363" y="280" width="80" height="80" as="geometry" />
        </mxCell>
        <mxCell id="4TkWEprui47BmuY2ACx3-28" value="6" style="edgeStyle=orthogonalEdgeStyle;rounded=0;orthogonalLoop=1;jettySize=auto;html=1;startArrow=none;startFill=0;endArrow=block;endFill=1;" edge="1" parent="NSxLioo0HMQ3cZ4GGgc0-1" source="4TkWEprui47BmuY2ACx3-25" target="4TkWEprui47BmuY2ACx3-27">
          <mxGeometry relative="1" as="geometry" />
        </mxCell>
        <mxCell id="4TkWEprui47BmuY2ACx3-25" value="Create Email Record&lt;br&gt;With Attachment" style="whiteSpace=wrap;html=1;" vertex="1" parent="NSxLioo0HMQ3cZ4GGgc0-1">
          <mxGeometry x="363" y="400" width="80" height="80" as="geometry" />
        </mxCell>
        <mxCell id="4TkWEprui47BmuY2ACx3-32" value="7" style="edgeStyle=orthogonalEdgeStyle;rounded=0;orthogonalLoop=1;jettySize=auto;html=1;startArrow=none;startFill=0;endArrow=block;endFill=1;" edge="1" parent="NSxLioo0HMQ3cZ4GGgc0-1" source="4TkWEprui47BmuY2ACx3-27" target="4TkWEprui47BmuY2ACx3-31">
          <mxGeometry relative="1" as="geometry" />
        </mxCell>
        <mxCell id="4TkWEprui47BmuY2ACx3-27" value="Create Comment" style="whiteSpace=wrap;html=1;" vertex="1" parent="NSxLioo0HMQ3cZ4GGgc0-1">
          <mxGeometry x="483" y="400" width="80" height="80" as="geometry" />
        </mxCell>
        <mxCell id="4TkWEprui47BmuY2ACx3-40" value="8b. Yes" style="edgeStyle=orthogonalEdgeStyle;rounded=0;orthogonalLoop=1;jettySize=auto;html=1;entryX=0;entryY=0.5;entryDx=0;entryDy=0;startArrow=none;startFill=0;endArrow=block;endFill=1;" edge="1" parent="NSxLioo0HMQ3cZ4GGgc0-1" source="4TkWEprui47BmuY2ACx3-31" target="4TkWEprui47BmuY2ACx3-35">
          <mxGeometry x="-0.5" y="10" relative="1" as="geometry">
            <mxPoint as="offset" />
          </mxGeometry>
        </mxCell>
        <mxCell id="4TkWEprui47BmuY2ACx3-45" value="8a. No" style="edgeStyle=orthogonalEdgeStyle;rounded=0;orthogonalLoop=1;jettySize=auto;html=1;entryX=0;entryY=1;entryDx=0;entryDy=0;startArrow=none;startFill=0;endArrow=block;endFill=1;" edge="1" parent="NSxLioo0HMQ3cZ4GGgc0-1" source="4TkWEprui47BmuY2ACx3-31" target="4TkWEprui47BmuY2ACx3-13">
          <mxGeometry x="-0.9286" y="-20" relative="1" as="geometry">
            <Array as="points">
              <mxPoint x="643" y="360" />
              <mxPoint x="763" y="360" />
            </Array>
            <mxPoint as="offset" />
          </mxGeometry>
        </mxCell>
        <mxCell id="4TkWEprui47BmuY2ACx3-31" value="Loan is SNAPP or&amp;nbsp;&lt;br&gt;Proc.Plat" style="rhombus;whiteSpace=wrap;html=1;" vertex="1" parent="NSxLioo0HMQ3cZ4GGgc0-1">
          <mxGeometry x="603" y="400" width="80" height="80" as="geometry" />
        </mxCell>
        <mxCell id="4TkWEprui47BmuY2ACx3-42" value="9" style="edgeStyle=orthogonalEdgeStyle;rounded=0;orthogonalLoop=1;jettySize=auto;html=1;entryX=0.5;entryY=1;entryDx=0;entryDy=0;startArrow=none;startFill=0;endArrow=block;endFill=1;exitX=0.5;exitY=0;exitDx=0;exitDy=0;" edge="1" parent="NSxLioo0HMQ3cZ4GGgc0-1" source="4TkWEprui47BmuY2ACx3-35" target="4TkWEprui47BmuY2ACx3-13">
          <mxGeometry x="-0.9" y="-10" relative="1" as="geometry">
            <Array as="points">
              <mxPoint x="763" y="370" />
              <mxPoint x="803" y="370" />
            </Array>
            <mxPoint as="offset" />
          </mxGeometry>
        </mxCell>
        <mxCell id="4TkWEprui47BmuY2ACx3-35" value="Create CL Follow-Up Reminder" style="whiteSpace=wrap;html=1;" vertex="1" parent="NSxLioo0HMQ3cZ4GGgc0-1">
          <mxGeometry x="723" y="400" width="80" height="80" as="geometry" />
        </mxCell>
        <mxCell id="nvCHzbPx1Ij0sgO49Gp0-3" style="edgeStyle=orthogonalEdgeStyle;rounded=0;orthogonalLoop=1;jettySize=auto;html=1;entryX=0;entryY=0.5;entryDx=0;entryDy=0;startArrow=none;startFill=0;endArrow=block;endFill=1;" edge="1" parent="NSxLioo0HMQ3cZ4GGgc0-1" source="nvCHzbPx1Ij0sgO49Gp0-0" target="nvCHzbPx1Ij0sgO49Gp0-1">
          <mxGeometry relative="1" as="geometry" />
        </mxCell>
        <mxCell id="nvCHzbPx1Ij0sgO49Gp0-0" value="Email Prod Support&lt;br&gt;Printing failed" style="whiteSpace=wrap;html=1;aspect=fixed;" vertex="1" parent="NSxLioo0HMQ3cZ4GGgc0-1">
          <mxGeometry x="523" y="43" width="80" height="80" as="geometry" />
        </mxCell>
        <mxCell id="nvCHzbPx1Ij0sgO49Gp0-1" value="Fail the&amp;nbsp; Hangfire Job (A) as failed" style="whiteSpace=wrap;html=1;aspect=fixed;" vertex="1" parent="NSxLioo0HMQ3cZ4GGgc0-1">
          <mxGeometry x="643" y="43" width="80" height="80" as="geometry" />
        </mxCell>
      </root>
    </mxGraphModel>
  </diagram>
</mxfile>
